<mxfile host="app.diagrams.net" modified="2023-11-16T11:06:38.912Z" agent="Mozilla/5.0 (Windows NT 10.0; Win64; x64) AppleWebKit/537.36 (KHTML, like Gecko) Chrome/117.0.0.0 Safari/537.36" version="22.1.2" etag="Bp52GenSLClHVsIvF1n2" type="github">
  <diagram name="PÃ¡gina-1" id="KKSvKOR7rog1gAJ4Y_Iz">
    <mxGraphModel>
      <root>
        <mxCell id="0" />
        <mxCell id="1" parent="0" />
      </root>
    </mxGraphModel>
  </diagram>
</mxfile>
